<?xml version="1.0" encoding="UTF-8" standalone="no"?>
<!-- Generator: Adobe Illustrator 19.0.0, SVG Export Plug-In . SVG Version: 6.00 Build 0)  -->

<svg
   xmlns:dc="http://purl.org/dc/elements/1.1/"
   xmlns:cc="http://creativecommons.org/ns#"
   xmlns:rdf="http://www.w3.org/1999/02/22-rdf-syntax-ns#"
   xmlns:svg="http://www.w3.org/2000/svg"
   xmlns="http://www.w3.org/2000/svg"
   xmlns:sodipodi="http://sodipodi.sourceforge.net/DTD/sodipodi-0.dtd"
   xmlns:inkscape="http://www.inkscape.org/namespaces/inkscape"
   version="1.1"
   id="Capa_1"
   x="0px"
   y="0px"
   viewBox="0 0 512.002 512.002"
   style="enable-background:new 0 0 512.002 512.002;"
   xml:space="preserve"
   sodipodi:docname="ms_lockout_logo.svg"
   inkscape:version="0.92.1 r15371"
   inkscape:export-filename="C:\Users\kutay\Documents\git\ms_lockout\docs\ms_lockout_logo.png"
   inkscape:export-xdpi="112.49956"
   inkscape:export-ydpi="112.49956"><metadata
   id="metadata73"><rdf:RDF><cc:Work
       rdf:about=""><dc:format>image/svg+xml</dc:format><dc:type
         rdf:resource="http://purl.org/dc/dcmitype/StillImage" /><dc:title /></cc:Work></rdf:RDF></metadata><defs
   id="defs71" /><sodipodi:namedview
   pagecolor="#ffffff"
   bordercolor="#666666"
   borderopacity="1"
   objecttolerance="10"
   gridtolerance="10"
   guidetolerance="10"
   inkscape:pageopacity="0"
   inkscape:pageshadow="2"
   inkscape:window-width="2000"
   inkscape:window-height="1270"
   id="namedview69"
   showgrid="false"
   inkscape:zoom="0.92187137"
   inkscape:cx="211.1809"
   inkscape:cy="387.40675"
   inkscape:window-x="-8"
   inkscape:window-y="-8"
   inkscape:window-maximized="1"
   inkscape:current-layer="g4642" />
<path
   style="fill:#5599ff"
   d="M344.177,376.243H167.823c-17.709,0-32.065-14.356-32.065-32.065V167.824  c0-17.709,14.356-32.065,32.065-32.065h176.355c17.709,0,32.065,14.356,32.065,32.065v176.355  C376.242,361.887,361.886,376.243,344.177,376.243z"
   id="path2" />
<path
   style="fill:#aaccff"
   d="M344.177,352.195H167.823c-4.427,0-8.016-3.589-8.016-8.016V167.824c0-4.427,3.589-8.016,8.016-8.016  h176.355c4.427,0,8.016,3.589,8.016,8.016v176.355C352.194,348.606,348.605,352.195,344.177,352.195z"
   id="path4" />
<g
   id="g10"
   style="fill:#5599ff">
	<circle
   style="fill:#5599ff"
   cx="39.564999"
   cy="191.871"
   r="16.030001"
   id="circle6" />
	<circle
   style="fill:#5599ff"
   cx="472.44"
   cy="320.13101"
   r="16.030001"
   id="circle8" />
</g>
<g
   id="g16"
   style="fill:#5599ff">
	<circle
   style="fill:#5599ff"
   cx="23.532"
   cy="392.271"
   r="16.030001"
   id="circle12" />
	<circle
   style="fill:#5599ff"
   cx="488.47"
   cy="119.731"
   r="16.030001"
   id="circle14" />
</g>
<g
   id="g22"
   style="fill:#5599ff">
	<circle
   style="fill:#5599ff"
   cx="320.13"
   cy="39.566002"
   r="16.030001"
   id="circle18" />
	<circle
   style="fill:#5599ff"
   cx="191.87"
   cy="472.44101"
   r="16.030001"
   id="circle20" />
</g>
<g
   id="g28"
   style="fill:#80b3ff">
	<circle
   style="fill:#80b3ff"
   cx="119.73"
   cy="23.533001"
   r="16.030001"
   id="circle24" />
	<circle
   style="fill:#80b3ff"
   cx="392.26999"
   cy="488.47101"
   r="16.030001"
   id="circle26" />
</g>

<path
   d="M504.5,248.501H383.742v-17.064h32.581c4.142,0,7.5-3.358,7.5-7.5s-3.358-7.5-7.5-7.5h-32.581v-17.065h22.62  c8.427,0,16.35-3.281,22.308-9.24l49.326-49.326c3.214,1.601,6.777,2.453,10.473,2.453c6.286,0,12.195-2.448,16.64-6.892  c4.445-4.445,6.893-10.354,6.893-16.64s-2.448-12.195-6.893-16.64c-4.444-4.445-10.354-6.893-16.64-6.893s-12.195,2.448-16.64,6.892  c-4.445,4.445-6.893,10.354-6.893,16.64c0,3.696,0.852,7.259,2.453,10.473l-49.326,49.326c-3.125,3.125-7.281,4.847-11.702,4.847  h-22.62v-16.548c0-21.816-17.749-39.564-39.564-39.564h-16.548V61.865c9.308-3.139,16.032-11.946,16.032-22.3  c0-12.976-10.557-23.532-23.532-23.532s-23.532,10.557-23.532,23.532c0,10.354,6.724,19.16,16.032,22.3v66.394h-17.064V95.678  c0-4.142-3.358-7.5-7.5-7.5s-7.5,3.358-7.5,7.5v32.581H263.5V7.501c0-4.142-3.358-7.5-7.5-7.5s-7.5,3.358-7.5,7.5v120.758h-17.064  V95.678c0-4.142-3.358-7.5-7.5-7.5s-7.5,3.358-7.5,7.5v32.581h-17.064V105.64c0-8.427-3.282-16.35-9.241-22.308l-49.343-49.343  c4.359-8.801,2.898-19.775-4.421-27.095c-9.176-9.175-24.105-9.174-33.28,0c-9.175,9.175-9.175,24.104,0,33.28  c4.588,4.587,10.614,6.881,16.64,6.881c3.588,0,7.17-0.833,10.455-2.46l49.343,49.344c3.126,3.125,4.847,7.281,4.847,11.701v22.619  h-16.548c-3.345,0-6.672,0.42-9.888,1.247c-4.011,1.032-6.426,5.121-5.394,9.133s5.122,6.427,9.133,5.394  c1.995-0.513,4.063-0.774,6.148-0.774h176.354c13.545,0,24.564,11.02,24.564,24.564v176.355c0,2.083-0.26,4.15-0.772,6.143  c-1.031,4.012,1.385,8.1,5.396,9.131c0.626,0.161,1.254,0.238,1.873,0.238c3.341,0,6.388-2.249,7.258-5.635  c0.826-3.212,1.245-6.536,1.245-9.878v-16.548h66.394c3.139,9.308,11.946,16.032,22.3,16.032c12.976,0,23.532-10.556,23.532-23.532  s-10.557-23.532-23.532-23.532c-10.354,0-19.16,6.724-22.3,16.032h-66.394v-17.065h32.581c4.142,0,7.5-3.358,7.5-7.5  s-3.358-7.5-7.5-7.5h-32.581v-17.063H504.5c4.142,0,7.5-3.358,7.5-7.5S508.642,248.501,504.5,248.501z M482.435,113.694  c1.612-1.612,3.754-2.499,6.033-2.499s4.421,0.887,6.033,2.499s2.499,3.754,2.499,6.033s-0.887,4.421-2.499,6.033  s-3.754,2.499-6.033,2.499s-4.421-0.887-6.033-2.499l0,0c-1.612-1.612-2.499-3.754-2.499-6.033S480.823,115.305,482.435,113.694z   M320.129,31.033c4.705,0,8.532,3.828,8.532,8.532s-3.828,8.532-8.532,8.532s-8.532-3.828-8.532-8.532  S315.424,31.033,320.129,31.033z M113.692,29.567c-3.327-3.327-3.327-8.74,0-12.066c1.664-1.664,3.848-2.495,6.034-2.495  c2.185,0,4.37,0.832,6.033,2.495c3.327,3.327,3.327,8.74,0,12.067l0,0C122.433,32.893,117.02,32.894,113.692,29.567z   M472.436,311.598c4.705,0,8.532,3.828,8.532,8.532c0,4.705-3.828,8.532-8.532,8.532s-8.532-3.828-8.532-8.532  C463.903,315.425,467.731,311.598,472.436,311.598z"
   id="path32" />
<path
   d="M381.819,467.407l-49.343-49.344c-3.126-3.125-4.847-7.281-4.847-11.701v-22.619h16.548c3.345,0,6.671-0.42,9.886-1.247  c4.011-1.032,6.426-5.121,5.394-9.133c-1.032-4.011-5.119-6.426-9.133-5.394c-1.994,0.513-4.062,0.773-6.147,0.773H167.823  c-13.545,0-24.564-11.02-24.564-24.564V167.824c0-2.085,0.26-4.153,0.773-6.146c1.033-4.011-1.382-8.1-5.393-9.133  c-4.012-1.033-8.101,1.382-9.133,5.393c-0.828,3.214-1.247,6.54-1.247,9.886v16.548H61.864c-3.139-9.308-11.946-16.032-22.3-16.032  c-12.976,0-23.532,10.556-23.532,23.532s10.557,23.532,23.532,23.532c10.354,0,19.16-6.724,22.3-16.032h66.394v17.065H95.677  c-4.142,0-7.5,3.358-7.5,7.5s3.358,7.5,7.5,7.5h32.581v17.064H7.5c-4.142,0-7.5,3.358-7.5,7.5s3.358,7.5,7.5,7.5h120.758v17.064  H95.677c-4.142,0-7.5,3.358-7.5,7.5s3.358,7.5,7.5,7.5h32.581v17.065h-22.62c-8.427,0-16.35,3.281-22.308,9.24l-49.326,49.326  c-3.214-1.601-6.777-2.453-10.473-2.453c-6.286,0-12.195,2.448-16.64,6.892C2.448,380.08,0,385.99,0,392.275  s2.448,12.195,6.893,16.64c4.444,4.445,10.354,6.892,16.64,6.892s12.195-2.448,16.64-6.892c4.445-4.445,6.893-10.354,6.893-16.64  c0-3.696-0.852-7.259-2.453-10.473l49.326-49.326c3.125-3.125,7.281-4.847,11.702-4.847h22.62v16.548  c0,21.816,17.749,39.564,39.564,39.564h16.548v66.394c-9.308,3.139-16.032,11.946-16.032,22.3c0,12.976,10.557,23.532,23.532,23.532  s23.532-10.557,23.532-23.532c0-10.354-6.724-19.16-16.032-22.3v-66.394h17.064v32.581c0,4.142,3.358,7.5,7.5,7.5s7.5-3.358,7.5-7.5  v-32.581H248.5v120.76c0,4.142,3.358,7.5,7.5,7.5s7.5-3.358,7.5-7.5V383.743h17.064v32.581c0,4.142,3.358,7.5,7.5,7.5  s7.5-3.358,7.5-7.5v-32.581h17.064v22.619c0,8.427,3.282,16.35,9.241,22.308l49.343,49.343c-4.359,8.801-2.898,19.775,4.422,27.095  c4.587,4.588,10.614,6.881,16.64,6.881s12.053-2.293,16.64-6.881c9.175-9.175,9.175-24.104,0-33.279  C401.595,464.509,390.62,463.048,381.819,467.407z M39.564,200.404c-4.705,0-8.532-3.828-8.532-8.532  c0-4.705,3.828-8.532,8.532-8.532s8.532,3.828,8.532,8.532C48.097,196.577,44.269,200.404,39.564,200.404z M29.565,398.308  c-1.612,1.612-3.754,2.499-6.033,2.499s-4.421-0.887-6.033-2.499c-1.612-1.612-2.499-3.754-2.499-6.033s0.887-4.421,2.499-6.033  s3.754-2.499,6.033-2.499s4.421,0.887,6.033,2.499l0,0c1.612,1.612,2.499,3.754,2.499,6.033S31.177,396.697,29.565,398.308z   M191.871,480.969c-4.705,0-8.532-3.828-8.532-8.532s3.828-8.532,8.532-8.532s8.532,3.828,8.532,8.532  S196.576,480.969,191.871,480.969z M398.308,494.502c-3.327,3.327-8.74,3.326-12.067,0c-3.327-3.327-3.327-8.74,0-12.066  c1.664-1.663,3.849-2.495,6.034-2.495s4.37,0.832,6.033,2.495C401.634,485.762,401.634,491.175,398.308,494.502z"
   id="path34" />

<g
   id="g38">
</g>
<g
   id="g40">
</g>
<g
   id="g42">
</g>
<g
   id="g44">
</g>
<g
   id="g46">
</g>
<g
   id="g48">
</g>
<g
   id="g50">
</g>
<g
   id="g52">
</g>
<g
   id="g54">
</g>
<g
   id="g56">
</g>
<g
   id="g58">
</g>
<g
   id="g60">
</g>
<g
   id="g62">
</g>
<g
   id="g64">
</g>
<g
   id="g66">
</g>
<g
   id="g4558"
   transform="matrix(2.7157341,0,0,2.7157341,177.24421,177.24521)">
</g><g
   id="g4560"
   transform="matrix(2.7157341,0,0,2.7157341,177.24421,177.24521)">
</g><g
   id="g4562"
   transform="matrix(2.7157341,0,0,2.7157341,177.24421,177.24521)">
</g><g
   id="g4564"
   transform="matrix(2.7157341,0,0,2.7157341,177.24421,177.24521)">
</g><g
   id="g4566"
   transform="matrix(2.7157341,0,0,2.7157341,177.24421,177.24521)">
</g><g
   id="g4568"
   transform="matrix(2.7157341,0,0,2.7157341,177.24421,177.24521)">
</g><g
   id="g4570"
   transform="matrix(2.7157341,0,0,2.7157341,177.24421,177.24521)">
</g><g
   id="g4572"
   transform="matrix(2.7157341,0,0,2.7157341,177.24421,177.24521)">
</g><g
   id="g4574"
   transform="matrix(2.7157341,0,0,2.7157341,177.24421,177.24521)">
</g><g
   id="g4576"
   transform="matrix(2.7157341,0,0,2.7157341,177.24421,177.24521)">
</g><g
   id="g4578"
   transform="matrix(2.7157341,0,0,2.7157341,177.24421,177.24521)">
</g><g
   id="g4580"
   transform="matrix(2.7157341,0,0,2.7157341,177.24421,177.24521)">
</g><g
   id="g4582"
   transform="matrix(2.7157341,0,0,2.7157341,177.24421,177.24521)">
</g><g
   id="g4584"
   transform="matrix(2.7157341,0,0,2.7157341,177.24421,177.24521)">
</g><g
   id="g4586"
   transform="matrix(2.7157341,0,0,2.7157341,177.24421,177.24521)">
</g><g
   id="g4642"
   transform="translate(1.171875e-5,-0.88777241)"><path
     id="path4550"
     d="m 283.15784,239.34319 v -31.63016 c 0,-13.76877 -12.2208,-25.03635 -27.15734,-25.03635 -14.93654,0 -27.15734,11.26758 -27.15734,25.03635 v 31.63016"
     style="fill:none;stroke:#000000;stroke-width:15;stroke-linecap:round;stroke-linejoin:round;stroke-miterlimit:10;stroke-opacity:1;stroke-dasharray:none"
     inkscape:connector-curvature="0" /><circle
     id="circle4552"
     r="51.598949"
     cy="283.15884"
     cx="256.00049"
     style="fill:#e9ddaf;stroke-width:2.715734" /><path
     id="path4554"
     d="m 307.59945,283.15884 c 0,-28.4962 -23.10275,-51.59895 -51.59895,-51.59895 v 103.1979 c 28.4962,0 51.59895,-23.10275 51.59895,-51.59895 z"
     style="fill:#decd87;stroke-width:2.715734"
     inkscape:connector-curvature="0" /><path
     id="path4556"
     d="m 256.0005,298.6551 v 0 c -5.0083,0 -9.10599,-4.0977 -9.10599,-9.106 v -18.21199 c 0,-5.0083 4.09769,-9.106 9.10599,-9.106 v 0 c 5.0083,0 9.10599,4.0977 9.10599,9.106 v 18.21199 c 0,5.0083 -4.09769,9.106 -9.10599,9.106 z"
     style="fill:#000000;fill-opacity:1;stroke-width:3.03533149"
     inkscape:connector-curvature="0" /><circle
     r="52.090218"
     cy="280.44312"
     cx="256.00049"
     id="path4635"
     style="opacity:1;fill:none;fill-opacity:1;fill-rule:evenodd;stroke:#000000;stroke-width:15;stroke-linecap:round;stroke-linejoin:round;stroke-miterlimit:4;stroke-dasharray:none;stroke-dashoffset:0;stroke-opacity:1;paint-order:stroke fill markers" /></g></svg>